<svg width="145" height="145" viewBox="0 0 145 145" fill="none" xmlns="http://www.w3.org/2000/svg">
<circle cx="72.5" cy="72.5" r="72.5" fill="url(#paint0_linear_53_564)"/>
<path d="M54.744 58.32L60.624 58.2C61.12 58.2 61.376 58.28 61.392 58.44L61.128 62.208C60.456 62.208 60.12 62.096 60.12 61.872L59.76 59.4L55.632 59.496L55.752 66.6L55.632 73.752L58.344 74.28C58.344 74.76 58.224 75 57.984 75C57.36 75 56.304 74.968 54.816 74.904L51.528 75C51.288 75 51.168 74.76 51.168 74.28L53.88 73.752L53.76 66.6L53.88 59.496L49.752 59.4L49.392 61.872C49.392 62.096 49.056 62.208 48.384 62.208L48.12 58.44C48.136 58.28 48.392 58.2 48.888 58.2L54.744 58.32ZM66.0632 63.768C67.2152 63.768 68.1192 64.24 68.7752 65.184C69.4472 66.112 69.7832 67.248 69.7832 68.592V69.12C67.7672 69.456 65.7512 69.624 63.7352 69.624H62.1752V69.96C62.1752 71.272 62.5112 72.296 63.1832 73.032C63.8552 73.768 64.6952 74.136 65.7032 74.136C66.7272 74.136 67.7192 73.936 68.6792 73.536C68.8872 73.728 69.0232 73.968 69.0872 74.256C68.0312 74.944 66.7832 75.288 65.3432 75.288C63.9032 75.288 62.7032 74.832 61.7432 73.92C60.7992 73.008 60.3272 71.648 60.3272 69.84C60.3272 68.016 60.8472 66.552 61.8872 65.448C62.9272 64.328 64.3192 63.768 66.0632 63.768ZM64.2392 65.04C63.1512 65.776 62.4872 67 62.2472 68.712C64.1032 68.68 65.9432 68.512 67.7672 68.208C67.8152 67.92 67.8392 67.648 67.8392 67.392C67.8392 66.624 67.6312 66.024 67.2152 65.592C66.7992 65.144 66.1912 64.92 65.3912 64.92C64.9592 64.92 64.5752 64.96 64.2392 65.04ZM79.8572 73.536C80.0812 73.712 80.2252 73.952 80.2892 74.256C79.2172 74.944 78.0972 75.288 76.9292 75.288C75.3452 75.288 74.0572 74.792 73.0652 73.8C72.0732 72.792 71.5772 71.376 71.5772 69.552C71.5772 67.712 72.1132 66.288 73.1852 65.28C74.2572 64.272 75.6092 63.768 77.2412 63.768C78.2332 63.944 79.2012 64.256 80.1452 64.704C80.1452 65.04 80.0572 65.376 79.8812 65.712C79.7212 66.048 79.5692 66.216 79.4252 66.216C79.0572 66.216 78.7052 66.104 78.3692 65.88C78.0492 65.64 77.7132 65.4 77.3612 65.16C77.0252 64.92 76.8012 64.76 76.6892 64.68C74.5292 64.968 73.4492 66.56 73.4492 69.456C73.4492 70.912 73.7852 72.056 74.4572 72.888C75.1452 73.72 76.0732 74.136 77.2412 74.136C78.0572 74.136 78.9292 73.936 79.8572 73.536ZM85.3429 73.752L87.0709 74.28C87.0709 74.76 86.9669 75 86.7589 75C86.7429 75 85.9989 74.968 84.5269 74.904L81.8869 75C81.6789 75 81.5749 74.76 81.5749 74.28L83.6389 73.752V58.104H81.8629C81.6389 58.104 81.5269 57.808 81.5269 57.216C81.5269 57.184 82.0709 57.096 83.1589 56.952C84.2469 56.792 84.8469 56.712 84.9589 56.712C85.2149 56.856 85.3429 57.08 85.3429 57.384L85.2709 65.52L85.3429 65.568C86.3509 64.864 87.4389 64.312 88.6069 63.912C89.8389 63.912 90.7509 64.208 91.3429 64.8C91.9509 65.392 92.2549 66.216 92.2549 67.272V73.752L94.3189 74.28C94.3189 74.76 94.2149 75 94.0069 75C93.9909 75 93.1109 74.968 91.3669 74.904L89.1349 75C88.9269 75 88.8229 74.76 88.8229 74.28L90.5509 73.752V67.344C90.5509 65.904 89.8709 65.184 88.5109 65.184C87.6629 65.184 86.7589 65.488 85.7989 66.096C85.4949 66.848 85.3429 67.464 85.3429 67.944V73.752ZM59.4084 92H58.0164L54.5364 82.304L53.4084 81.776C53.4084 81.296 53.5204 81.056 53.7444 81.056L55.6164 81.152L57.3684 81.056C57.5924 81.056 57.7044 81.296 57.7044 81.776L56.2164 82.256L58.9764 90.008L61.6164 82.256L60.1284 81.776C60.1284 81.296 60.2404 81.056 60.4644 81.056L62.0964 81.152L63.5844 81.056C63.8084 81.056 63.9204 81.296 63.9204 81.776L62.7924 82.304L59.4084 92ZM68.8999 90.752L70.9639 91.28C70.9639 91.76 70.8519 92 70.6279 92L68.0599 91.904L65.4679 92C65.2439 92 65.1319 91.76 65.1319 91.28L67.1959 90.752V82.16H65.4919C65.2679 82.16 65.1559 81.864 65.1559 81.272C65.1559 81.24 65.6839 81.152 66.7399 81.008C67.8119 80.848 68.4039 80.768 68.5159 80.768C68.7719 80.912 68.8999 81.136 68.8999 81.44V90.752ZM68.2999 75.752C68.8439 75.752 69.1159 76.2 69.1159 77.096L68.9479 78.44C68.4519 78.584 68.0439 78.656 67.7239 78.656C67.1639 78.656 66.8839 78.216 66.8839 77.336C66.8839 76.936 66.9479 76.464 67.0759 75.92C67.5879 75.808 67.9959 75.752 68.2999 75.752ZM78.5415 82.256C78.0295 81.968 77.3735 81.824 76.5735 81.824C75.7735 81.824 75.0935 82.096 74.5335 82.64C74.4695 82.832 74.4375 83.096 74.4375 83.432C74.4375 84.008 74.7335 84.464 75.3255 84.8L78.3255 86.528C79.6855 87.328 80.3655 88.288 80.3655 89.408C80.3655 90.336 80.0055 91.048 79.2855 91.544C78.5655 92.04 77.5815 92.288 76.3335 92.288C75.1015 92.288 73.8695 92.08 72.6375 91.664C72.6375 91.424 72.7175 90.84 72.8775 89.912C73.0375 88.984 73.1255 88.52 73.1415 88.52C73.7335 88.52 74.0295 88.632 74.0295 88.856V90.584C74.6695 91.048 75.4055 91.28 76.2375 91.28C77.8855 91.28 78.7095 90.728 78.7095 89.624C78.7095 89.016 78.3095 88.48 77.5095 88.016L74.7255 86.408C73.5895 85.752 73.0215 84.848 73.0215 83.696C73.0215 82.88 73.3575 82.192 74.0295 81.632C74.7015 81.056 75.6055 80.776 76.7415 80.792C77.8935 80.792 78.9575 80.976 79.9335 81.344C79.9335 81.568 79.8535 82.096 79.6935 82.928C79.5335 83.76 79.4455 84.176 79.4295 84.176C78.8375 84.176 78.5415 84.064 78.5415 83.84V82.256ZM88.4276 91.136C87.4996 91.904 86.5316 92.288 85.5236 92.288C84.2276 92.288 83.5796 91.528 83.5796 90.008V82.208H82.0916C81.8676 82.208 81.7556 81.896 81.7556 81.272L83.7476 80.936L84.3716 78.248L85.2836 77.96V81.056H88.1156C88.1156 81.824 88.0036 82.208 87.7796 82.208H85.2836V89.864C85.2836 90.68 85.5956 91.088 86.2196 91.088C86.6836 91.088 87.2836 90.864 88.0196 90.416C88.2276 90.608 88.3636 90.848 88.4276 91.136ZM96.5304 89.816V86.576C94.4504 86.832 92.9544 87.36 92.0424 88.16C91.9624 88.48 91.9224 88.856 91.9224 89.288C91.9224 89.704 92.0424 90.088 92.2824 90.44C92.5224 90.776 92.8904 90.944 93.3864 90.944C94.3624 90.944 95.4104 90.568 96.5304 89.816ZM93.9144 81.68C93.8664 81.728 93.7064 81.896 93.4344 82.184C93.1624 82.456 92.9304 82.68 92.7384 82.856C92.1624 83.384 91.7304 83.648 91.4424 83.648C91.1544 83.648 90.9224 83.488 90.7464 83.168C90.5704 82.832 90.4664 82.528 90.4344 82.256C91.7144 81.552 93.0984 81.056 94.5864 80.768C95.8024 80.768 96.7144 81.088 97.3224 81.728C97.9304 82.368 98.2344 83.216 98.2344 84.272V90.392C98.2344 90.968 98.5784 91.256 99.2664 91.256C99.4584 91.256 99.6984 91.232 99.9864 91.184C100.13 91.328 100.202 91.528 100.202 91.784C99.6584 92.12 99.0904 92.288 98.4984 92.288C97.3944 92.288 96.7544 91.776 96.5784 90.752C94.6104 91.776 93.2584 92.288 92.5224 92.288C91.7864 92.288 91.1944 92.016 90.7464 91.472C90.3144 90.928 90.0984 90.288 90.0984 89.552C90.0984 88.56 90.6264 87.696 91.6824 86.96C92.7544 86.224 94.3704 85.832 96.5304 85.784V84.344C96.5304 83.576 96.2904 82.944 95.8104 82.448C95.3464 81.936 94.7144 81.68 93.9144 81.68Z" fill="white"/>
<defs>
<linearGradient id="paint0_linear_53_564" x1="72.5" y1="-2.778e-06" x2="119.107" y2="122.56" gradientUnits="userSpaceOnUse">
<stop stop-color="#AAA39C"/>
<stop offset="1" stop-color="#7E7D7C" stop-opacity="0"/>
</linearGradient>
</defs>
</svg>
