<svg width="108" height="42" viewBox="0 0 108 42" fill="none" xmlns="http://www.w3.org/2000/svg">
<g clip-path="url(#clip0_4_517)">
<path d="M8.73047 30H5.63672V15.1406H0.292969V12.4219H14.0625V15.1406H8.73047V30ZM24.6797 28.6406C23.2188 29.7031 21.6211 30.2344 19.8867 30.2344C18.6289 30.2344 17.5 29.9609 16.5 29.4141C15.5 28.8672 14.707 28.1211 14.1211 27.1758C13.543 26.2227 13.2539 25.1523 13.2539 23.9648C13.2539 22.832 13.5156 21.8203 14.0391 20.9297C14.5703 20.0391 15.293 19.3359 16.207 18.8203C17.1289 18.3047 18.168 18.0469 19.3242 18.0469C20.5273 18.0469 21.582 18.332 22.4883 18.9023C23.4023 19.4648 24.1133 20.25 24.6211 21.2578C25.1289 22.2578 25.3828 23.4219 25.3828 24.75V25.125H16.3594C16.5 25.6562 16.7461 26.125 17.0977 26.5312C17.457 26.9375 17.9023 27.2539 18.4336 27.4805C18.9648 27.707 19.5625 27.8203 20.2266 27.8203C21.4766 27.8203 22.6328 27.4141 23.6953 26.6016L24.6797 28.6406ZM16.2422 23.4375H22.7109C22.6484 22.8516 22.4688 22.3398 22.1719 21.9023C21.8828 21.4648 21.5039 21.125 21.0352 20.8828C20.5742 20.6328 20.0547 20.5078 19.4766 20.5078C18.8906 20.5078 18.3672 20.6328 17.9062 20.8828C17.4453 21.1328 17.0703 21.4805 16.7812 21.9258C16.4922 22.3633 16.3125 22.8672 16.2422 23.4375ZM37.8867 28.1953C37.3164 28.8438 36.625 29.3477 35.8125 29.707C35 30.0586 34.1133 30.2344 33.1523 30.2344C31.9648 30.2344 30.8984 29.9688 29.9531 29.4375C29.0156 28.9062 28.2734 28.1836 27.7266 27.2695C27.1875 26.3477 26.918 25.3047 26.918 24.1406C26.918 22.9766 27.1875 21.9375 27.7266 21.0234C28.2734 20.1016 29.0156 19.375 29.9531 18.8438C30.8984 18.3125 31.9648 18.0469 33.1523 18.0469C34.1055 18.0469 34.9844 18.2227 35.7891 18.5742C36.6016 18.9258 37.293 19.4219 37.8633 20.0625L36.1758 21.8555C35.8242 21.4727 35.3984 21.1758 34.8984 20.9648C34.4062 20.7539 33.8828 20.6484 33.3281 20.6484C32.6562 20.6484 32.0586 20.7969 31.5352 21.0938C31.0195 21.3906 30.6133 21.8008 30.3164 22.3242C30.0273 22.8477 29.8828 23.4492 29.8828 24.1289C29.8828 24.8086 30.0273 25.4141 30.3164 25.9453C30.6133 26.4688 31.0195 26.8828 31.5352 27.1875C32.0586 27.4844 32.6562 27.6328 33.3281 27.6328C33.8828 27.6328 34.4102 27.5273 34.9102 27.3164C35.4102 27.0977 35.832 26.8008 36.1758 26.4258L37.8867 28.1953ZM40.1602 30V12.4219H43.043V19.7812C43.9023 18.625 45.1641 18.0469 46.8281 18.0469C48.3281 18.0469 49.5 18.5078 50.3438 19.4297C51.1875 20.3438 51.6094 21.6172 51.6094 23.25V30H48.7266V23.9883C48.7266 22.9258 48.4805 22.1016 47.9883 21.5156C47.4961 20.9219 46.8047 20.625 45.9141 20.625C45.0156 20.625 44.3125 20.9258 43.8047 21.5273C43.2969 22.1211 43.043 22.9414 43.043 23.9883V30H40.1602ZM63.8203 30H60.5156L53.4492 12.4219H56.707L62.168 26.5078L67.6406 12.4219H70.8867L63.8203 30ZM73.7109 15.1758C73.3047 15.1758 72.9609 15.0352 72.6797 14.7539C72.4062 14.4648 72.2695 14.1172 72.2695 13.7109C72.2695 13.3125 72.4062 12.9727 72.6797 12.6914C72.9609 12.4023 73.3047 12.2578 73.7109 12.2578C74.125 12.2578 74.4727 12.4023 74.7539 12.6914C75.0352 12.9727 75.1758 13.3125 75.1758 13.7109C75.1758 14.1172 75.0352 14.4648 74.7539 14.7539C74.4727 15.0352 74.125 15.1758 73.7109 15.1758ZM75.1523 30H72.2695V18.2812H75.1523V30ZM77.4961 28.9922L78.1523 26.4844C78.4102 26.7422 78.7305 26.9766 79.1133 27.1875C79.4961 27.3984 79.9023 27.5664 80.332 27.6914C80.7695 27.8086 81.1953 27.8672 81.6094 27.8672C82.1641 27.8672 82.6094 27.7539 82.9453 27.5273C83.2812 27.293 83.4492 26.9883 83.4492 26.6133C83.4492 26.3164 83.3477 26.0703 83.1445 25.875C82.9414 25.6719 82.6758 25.4961 82.3477 25.3477C82.0195 25.1914 81.6602 25.0391 81.2695 24.8906C80.7539 24.7031 80.2305 24.4805 79.6992 24.2227C79.168 23.957 78.7227 23.6094 78.3633 23.1797C78.0117 22.7422 77.8359 22.1641 77.8359 21.4453C77.8359 20.75 78.0117 20.1484 78.3633 19.6406C78.7227 19.1328 79.2227 18.7422 79.8633 18.4688C80.5039 18.1875 81.25 18.0469 82.1016 18.0469C83.4453 18.0469 84.7852 18.3828 86.1211 19.0547L85.2891 21.4219C85.0391 21.2344 84.7344 21.0625 84.375 20.9062C84.0156 20.75 83.6484 20.625 83.2734 20.5312C82.8984 20.4375 82.5586 20.3906 82.2539 20.3906C81.8086 20.3906 81.4531 20.4883 81.1875 20.6836C80.9219 20.8789 80.7891 21.1367 80.7891 21.457C80.7891 21.6758 80.8633 21.875 81.0117 22.0547C81.1602 22.2266 81.3906 22.3945 81.7031 22.5586C82.0156 22.7227 82.418 22.9062 82.9102 23.1094C83.4414 23.3125 83.9727 23.5508 84.5039 23.8242C85.043 24.0898 85.4922 24.4453 85.8516 24.8906C86.2188 25.3281 86.4023 25.9102 86.4023 26.6367C86.4023 27.3555 86.207 27.9844 85.8164 28.5234C85.4336 29.0625 84.8945 29.4844 84.1992 29.7891C83.5117 30.0859 82.707 30.2344 81.7852 30.2344C80.2539 30.2344 78.8242 29.8203 77.4961 28.9922ZM96.3047 29.6953C95.4453 30.0547 94.6133 30.2344 93.8086 30.2344C92.9883 30.2344 92.2656 30.0586 91.6406 29.707C91.0234 29.3555 90.5391 28.8672 90.1875 28.2422C89.8438 27.6094 89.6719 26.875 89.6719 26.0391V20.8594H87.6211V18.2812H89.8242V15.3516H92.5547V18.2812H95.8945V20.8594H92.5547V25.5117C92.5547 26.1758 92.7344 26.6992 93.0938 27.082C93.4609 27.4648 93.918 27.6562 94.4648 27.6562C94.9492 27.6562 95.4297 27.5078 95.9062 27.2109L96.3047 29.6953ZM108.363 30H105.855L105.691 28.5586C105.262 29.0898 104.727 29.5039 104.086 29.8008C103.445 30.0898 102.734 30.2344 101.953 30.2344C101.125 30.2344 100.387 30.0742 99.7383 29.7539C99.0898 29.4258 98.5781 28.9805 98.2031 28.418C97.8359 27.8555 97.6523 27.2148 97.6523 26.4961C97.6523 25.7383 97.8516 25.0742 98.25 24.5039C98.6562 23.9258 99.207 23.4727 99.9023 23.1445C100.605 22.8164 101.406 22.6523 102.305 22.6523C102.852 22.6523 103.398 22.7148 103.945 22.8398C104.5 22.9648 105.012 23.1406 105.48 23.3672V22.9922C105.48 22.4766 105.34 22.0312 105.059 21.6562C104.777 21.2812 104.398 20.9922 103.922 20.7891C103.445 20.5781 102.91 20.4727 102.316 20.4727C101.777 20.4727 101.238 20.5664 100.699 20.7539C100.16 20.9336 99.6562 21.2031 99.1875 21.5625L98.3672 19.3008C99.1172 18.8867 99.8828 18.5742 100.664 18.3633C101.453 18.1523 102.223 18.0469 102.973 18.0469C104.074 18.0469 105.027 18.2656 105.832 18.7031C106.637 19.1328 107.258 19.75 107.695 20.5547C108.141 21.3516 108.363 22.293 108.363 23.3789V30ZM102.551 27.9141C103.059 27.9141 103.527 27.8086 103.957 27.5977C104.395 27.3867 104.75 27.0938 105.023 26.7188C105.305 26.3359 105.453 25.8984 105.469 25.4062V25.2773C105.102 25.0117 104.688 24.8086 104.227 24.668C103.766 24.5195 103.301 24.4453 102.832 24.4453C102.113 24.4453 101.523 24.6094 101.062 24.9375C100.602 25.2578 100.371 25.6797 100.371 26.2031C100.371 26.5234 100.465 26.8164 100.652 27.082C100.84 27.3398 101.098 27.543 101.426 27.6914C101.762 27.8398 102.137 27.9141 102.551 27.9141Z" fill="white"/>
</g>
<defs>
<clipPath id="clip0_4_517">
<rect width="108" height="42" fill="white"/>
</clipPath>
</defs>
</svg>
